<svg xmlns="http://www.w3.org/2000/svg" width="531" height="1035" viewBox="0 0 531 1035" role="img" aria-labelledby="title desc">
  <title id="title">iPhone 15 mockup frame</title>
  <desc id="desc">Clean space gray iPhone 15 frame with Dynamic Island, thin bezels, and a transparent screen cutout.</desc>

  <defs>
    <clipPath id="outer-clip">
      <rect x="18" y="8" width="495" height="1019" rx="76" ry="76"/>
    </clipPath>
  </defs>

  <path fill="#141519" fill-rule="evenodd" d="
    M94 8h343c42 0 76 34 76 76v867c0 42-34 76-76 76H94c-42 0-76-34-76-76V84C18 42 52 8 94 8Z
    M92 22h347c34 0 62 28 62 62v867c0 34-28 62-62 62H92c-34 0-62-28-62-62V84c0-34 28-62 62-62Z"/>

  <rect x="22" y="12" width="487" height="1011" rx="72" ry="72" fill="none" stroke="#32343a" stroke-width="3"/>
  <rect x="30" y="22" width="471" height="991" rx="62" ry="62" fill="transparent" id="screen-area"/>
  <rect x="206" y="39" width="119" height="37" rx="18.5" ry="18.5" fill="#050608" id="dynamic-island"/>
</svg>
